<?xml version="1.0" encoding="UTF-8"?>
<svg id="Capa_3" data-name="Capa 3" xmlns="http://www.w3.org/2000/svg" xmlns:xlink="http://www.w3.org/1999/xlink" viewBox="0 0 1743.37 895.83">
  <defs>
    <style>
      .cls-1 {
        filter: url(#drop-shadow-1);
      }

      .cls-1, .cls-2 {
        fill: #841dad;
      }

      .cls-3 {
        fill: #541472;
      }
    </style>
    <filter id="drop-shadow-1" filterUnits="userSpaceOnUse">
      <feOffset dx="5.67" dy="2.83"/>
      <feGaussianBlur result="blur" stdDeviation="2.83"/>
      <feFlood flood-color="#561475" flood-opacity=".42"/>
      <feComposite in2="blur" operator="in"/>
      <feComposite in="SourceGraphic"/>
    </filter>
  </defs>
  <polygon class="cls-3" points="733.43 452.85 1058.04 895.83 1431.08 895.83 1431.08 674.34 1185.38 674.34 1016.79 452.85 1013.5 447.58 1016.79 442.98 1185.38 221.49 1431.08 221.49 1431.08 0 1058.04 0 733.43 442.98 730.19 447.58 733.43 452.85"/>
  <polygon class="cls-1" points="871.68 254.31 729.87 447.58 871.68 641.52 1013.18 447.58 871.68 254.31"/>
  <polygon class="cls-2" points="1009.94 452.85 685.33 895.83 312.29 895.83 312.29 674.34 557.99 674.34 726.58 452.85 729.87 447.58 726.58 442.98 557.99 221.49 312.29 221.49 312.29 0 685.33 0 1009.94 442.98 1013.18 447.58 1009.94 452.85"/>
</svg>